<svg width="667" height="919" viewBox="0 0 667 919" fill="none" xmlns="http://www.w3.org/2000/svg">
<path d="M414.021 656.229V908.917H180.562V656.229H414.021ZM245.042 10H409.625C474.819 10 524.523 16.5933 559.36 29.2334L559.363 29.2354C593.503 41.6089 617.867 63.1199 633.075 93.9268L633.076 93.9297C648.485 125.114 656.667 171.94 656.667 235.438V319.5C656.667 380.949 645.808 428.385 625.066 462.702V462.703C605.123 495.706 573.619 512.52 528.542 512.521H488.896C466.333 512.521 447.337 516.252 432.812 524.685C416.293 534.27 409.23 551.554 409.229 572.958V585.792H188.979V494.875C188.979 471.686 197.264 454.074 213.733 440.961L214.523 440.34C231.829 426.92 256.428 419.604 289.5 419.604H342.354C362.328 419.604 379.411 414.818 392.505 404.147H392.506C406.894 392.42 412.417 372.075 412.417 347.125C412.417 320.903 406.828 299.555 391.39 288.546H391.389C377.768 278.815 358.938 274.667 336.333 274.667H297.896C275.498 274.667 256.802 280.28 243.501 293.088C229.887 306.197 224.229 326.255 224.229 350.729V379.167H10V221.021C10 174.693 16.8782 136.519 30.1826 106.113V106.112C43.1149 76.5508 66.2803 53.124 100.556 35.9863L100.557 35.9854C134.64 18.9388 182.534 10 245.042 10Z" fill="#FF1FA9" stroke="white" stroke-width="20"/>
</svg>
