<svg xmlns="http://www.w3.org/2000/svg" xmlns:xlink="http://www.w3.org/1999/xlink" width="2000" zoomAndPan="magnify" viewBox="0 0 1500 1499.999933" height="2000" preserveAspectRatio="xMidYMid meet" version="1.0"><defs><g/></defs><rect x="-150" width="1800" fill="#ffffff" y="-149.999993" height="1799.99992" fill-opacity="1"/><rect x="-150" width="1800" fill="#5ce1e6" y="-149.999993" height="1799.99992" fill-opacity="1"/><g fill="#ff1fa9" fill-opacity="1"><g transform="translate(485.128096, 1123.072604)"><g><path d="M 150.453125 -318.03125 C 150.453125 -337.84375 157.804688 -353.453125 172.515625 -364.859375 C 187.234375 -376.273438 207.507812 -381.984375 233.34375 -381.984375 L 272.984375 -381.984375 C 286.796875 -381.984375 297.753906 -385.285156 305.859375 -391.890625 C 313.972656 -398.503906 318.03125 -410.820312 318.03125 -428.84375 C 318.03125 -448.0625 313.820312 -460.671875 305.40625 -466.671875 C 297 -472.679688 284.6875 -475.6875 268.46875 -475.6875 L 239.640625 -475.6875 C 224.023438 -475.6875 212.160156 -471.78125 204.046875 -463.96875 C 195.941406 -456.164062 191.890625 -443.554688 191.890625 -426.140625 L 191.890625 -397.3125 L 16.21875 -397.3125 L 16.21875 -523.421875 C 16.21875 -558.859375 21.472656 -588.585938 31.984375 -612.609375 C 42.492188 -636.628906 61.257812 -655.394531 88.28125 -668.90625 C 115.3125 -682.425781 152.550781 -689.1875 200 -689.1875 L 323.4375 -689.1875 C 372.6875 -689.1875 410.972656 -684.226562 438.296875 -674.3125 C 465.628906 -664.40625 485.445312 -646.988281 497.75 -622.0625 C 510.0625 -597.144531 516.21875 -560.660156 516.21875 -512.609375 L 516.21875 -449.5625 C 516.21875 -402.707031 507.957031 -365.613281 491.4375 -338.28125 C 474.925781 -310.957031 448.65625 -297.296875 412.625 -297.296875 L 382.890625 -297.296875 C 366.671875 -297.296875 353.90625 -294.59375 344.59375 -289.1875 C 335.289062 -283.789062 330.640625 -273.882812 330.640625 -259.46875 L 330.640625 -242.34375 L 150.453125 -242.34375 Z M 144.140625 -204.515625 L 334.234375 -204.515625 L 334.234375 0 L 144.140625 0 Z M 144.140625 -204.515625 "/></g></g></g></svg>